<svg width="72" height="72" viewBox="0 0 72 72" fill="none" xmlns="http://www.w3.org/2000/svg">
<path fill-rule="evenodd" clip-rule="evenodd" d="M38 18C35.2386 18 33 20.2386 33 23C33 25.7614 35.2386 28 38 28C40.7614 28 43 25.7614 43 23C43 20.2386 40.7614 18 38 18ZM29 23C29 18.0294 33.0294 14 38 14C42.9706 14 47 18.0294 47 23C47 27.9706 42.9706 32 38 32C33.0294 32 29 27.9706 29 23Z" fill="#FEB11C"/>
<path fill-rule="evenodd" clip-rule="evenodd" d="M50 6C44.4772 6 40 10.4772 40 16H36C36 8.26801 42.268 2 50 2V6Z" fill="#FEB11C"/>
<path fill-rule="evenodd" clip-rule="evenodd" d="M14 32C9.58172 32 6 35.5817 6 40V53C6 54.1046 6.89543 55 8 55H10V59H8C4.68629 59 2 56.3137 2 53V40C2 33.3726 7.37258 28 14 28H70V32H14Z" fill="#FEB11C"/>
<path fill-rule="evenodd" clip-rule="evenodd" d="M14 48.5V39H18V48.5C18 49.6046 18.8954 50.5 20 50.5C21.1046 50.5 22 49.6046 22 48.5V48H26V48.5C26 51.8137 23.3137 54.5 20 54.5C16.6863 54.5 14 51.8137 14 48.5Z" fill="#FEB11C"/>
<path fill-rule="evenodd" clip-rule="evenodd" d="M30 56V42H34V56C34 57.1046 34.8954 58 36 58C37.1046 58 38 57.1046 38 56V52H42V56C42 59.3137 39.3137 62 36 62C32.6863 62 30 59.3137 30 56Z" fill="#FEB11C"/>
<path fill-rule="evenodd" clip-rule="evenodd" d="M58 42V36H54V42C54 43.1046 53.1046 44 52 44C50.8954 44 50 43.1046 50 42V41H46V42C46 45.3137 48.6863 48 52 48C55.3137 48 58 45.3137 58 42Z" fill="#FEB11C"/>
<path fill-rule="evenodd" clip-rule="evenodd" d="M70 36V67C70 68.6569 68.6569 70 67 70H9C7.34315 70 6 68.6569 6 67V63H10V66H66V56H46V52H66V36H70Z" fill="#FEB11C"/>
</svg>
