<svg width="72" height="72" viewBox="0 0 72 72" fill="none" xmlns="http://www.w3.org/2000/svg">
<path fill-rule="evenodd" clip-rule="evenodd" d="M35 6C23.9543 6 15 14.9543 15 26H11C11 12.7452 21.7452 2 35 2C48.2548 2 59 12.7452 59 26C59 39.2548 48.2548 50 35 50H18.5V46H35C46.0457 46 55 37.0457 55 26C55 14.9543 46.0457 6 35 6Z" fill="#FEB11C"/>
<path fill-rule="evenodd" clip-rule="evenodd" d="M46 26C46 19.9249 41.0751 15 35 15V11C43.2843 11 50 17.7157 50 26H46Z" fill="#FEB11C"/>
<path fill-rule="evenodd" clip-rule="evenodd" d="M53.6603 47.0022L61.7254 60.9715C63.6076 64.2315 62.1117 68.4013 58.5864 69.7214C58.0944 69.9057 57.5734 70 57.0481 70L43.5 70L43.5 66L57.0481 66C57.0944 66 57.1403 65.9917 57.1836 65.9755C58.3939 65.5223 58.9075 64.0907 58.2613 62.9715L50.1962 49.0022L53.6603 47.0022Z" fill="#FEB11C"/>
<path fill-rule="evenodd" clip-rule="evenodd" d="M27 42L2 42L2 38L27 38V42Z" fill="#FEB11C"/>
<path fill-rule="evenodd" clip-rule="evenodd" d="M50.5 62L38 62V58L50.5 58V62Z" fill="#FEB11C"/>
<path fill-rule="evenodd" clip-rule="evenodd" d="M33 34L8 34V30L33 30V34Z" fill="#FEB11C"/>
</svg>
