<svg width="72" height="72" viewBox="0 0 72 72" fill="none" xmlns="http://www.w3.org/2000/svg">
<path fill-rule="evenodd" clip-rule="evenodd" d="M59 41H62C65.3137 41 68 43.6863 68 47V47.597C68 49.8153 66.7761 51.8525 64.8177 52.8942L44.7659 63.5601C43.6056 64.1772 42.3115 64.5 40.9973 64.5H25C21.9624 64.5 19.5 66.9624 19.5 70H15.5C15.5 64.7533 19.7533 60.5 25 60.5H40.9973C41.6565 60.5 42.3055 60.3381 42.8875 60.0286L62.9392 49.3627C63.592 49.0155 64 48.3364 64 47.597V47C64 45.8954 63.1046 45 62 45H59V41Z" fill="#FEB11C"/>
<path fill-rule="evenodd" clip-rule="evenodd" d="M4.19574 53.6371C7.88884 45.9152 15.6879 41 24.2476 41H36.5C39.8137 41 42.5 43.6863 42.5 47V49.5H38.5V47C38.5 45.8954 37.6046 45 36.5 45H24.2476C17.2283 45 10.8328 49.0306 7.80428 55.3629L4.19574 53.6371Z" fill="#FEB11C"/>
<path fill-rule="evenodd" clip-rule="evenodd" d="M21 18C19.8954 18 19 18.8954 19 20V38H15V20C15 16.6863 17.6863 14 21 14H34V28H45V25H49V29C49 30.6569 47.6569 32 46 32H33C31.3432 32 30 30.6569 30 29V18H21ZM38 14H57C60.3137 14 63 16.6863 63 20V37H59V20C59 18.8954 58.1046 18 57 18H38V14Z" fill="#FEB11C"/>
<path fill-rule="evenodd" clip-rule="evenodd" d="M16.2724 18.0077L9.27245 6.00775L12.7276 3.99226L19.7276 15.9923L16.2724 18.0077Z" fill="#FEB11C"/>
<path fill-rule="evenodd" clip-rule="evenodd" d="M61.7276 18.0077L68.7276 6.00775L65.2724 3.99226L58.2724 15.9923L61.7276 18.0077Z" fill="#FEB11C"/>
</svg>
