<svg width="72" height="72" viewBox="0 0 72 72" fill="none" xmlns="http://www.w3.org/2000/svg">
<path fill-rule="evenodd" clip-rule="evenodd" d="M37.5405 8C47.6898 8 55 16.2131 55 25.7451C55 35.1912 50.4659 42.5433 45.7991 47.6109C43.4715 50.1384 41.14 52.0639 39.3924 53.3555C38.52 54.0001 37.7972 54.4839 37.2987 54.8029C37.0495 54.9624 36.8567 55.0804 36.7297 55.1567C36.6662 55.1948 36.6192 55.2224 36.5898 55.2395L36.5592 55.2573L36.5548 55.2598C36.5548 55.2598 36.5559 55.2592 37.5405 57C38.5252 58.7408 38.5267 58.74 38.5267 58.74L38.5287 58.7388L38.5341 58.7358L38.5501 58.7266L38.6029 58.6961C38.6471 58.6703 38.7094 58.6337 38.7884 58.5862C38.9465 58.4914 39.1718 58.3532 39.4547 58.1721C40.0203 57.8102 40.8178 57.2758 41.7698 56.5723C43.6708 55.1674 46.2041 53.0758 48.7415 50.3206C53.8044 44.8229 59 36.5477 59 25.7451C59 14.1891 50.0797 4 37.5405 4C34.647 4 32.3466 4.2596 30.0039 5.2089C27.7072 6.1396 25.5154 7.67598 22.7335 9.95209L25.2665 13.0479C27.9846 10.824 29.7928 9.6104 31.5062 8.9161C33.1737 8.2404 34.8935 8 37.5405 8Z" fill="#FEB11C"/>
<path fill-rule="evenodd" clip-rule="evenodd" d="M35.5 22H16.5V18H35.5C41.0228 18 45.5 22.4772 45.5 28C45.5 33.5228 41.0228 38 35.5 38H23.0821V34H35.5C38.8137 34 41.5 31.3137 41.5 28C41.5 24.6863 38.8137 22 35.5 22ZM27.9219 30H9V26H27.9219V30Z" fill="#FEB11C"/>
<path fill-rule="evenodd" clip-rule="evenodd" d="M16.6786 54.6043C18.6861 53.2944 21.6845 52.1244 25.4344 51.2901L24.5656 47.3856C20.5441 48.2803 17.0425 49.5907 14.4928 51.2543C12.0081 52.8755 10 55.1343 10 58C10 60.1381 11.1343 61.9505 12.6977 63.3722C14.2605 64.7933 16.4103 65.9812 18.8973 66.9378C23.8846 68.8559 30.639 70 38 70C43.978 70 49.541 69.2457 54.0796 67.9439C58.5329 66.6665 62.3102 64.7737 64.3588 62.265L61.2606 59.735C59.9962 61.2834 57.1895 62.8906 52.9767 64.0989C48.8492 65.2828 43.6638 66 38 66C31.0016 66 24.756 64.9055 20.3332 63.2044C18.1151 62.3513 16.4573 61.3844 15.3888 60.4128C14.3208 59.4416 14 58.6234 14 58C14 57.1642 14.6062 55.9565 16.6786 54.6043Z" fill="#FEB11C"/>
</svg>
