<svg width="72" height="72" viewBox="0 0 72 72" fill="none" xmlns="http://www.w3.org/2000/svg">
<path fill-rule="evenodd" clip-rule="evenodd" d="M31.5165 2.74539C32.6869 1.57812 34.2274 1 35.7534 1C37.2794 0.999998 38.8198 1.57811 39.9903 2.74539L40.0527 2.80761L42.2402 5.41148L39.1775 7.98439L37.1131 5.52711C36.7374 5.17891 36.252 5 35.7534 5C35.2312 5 34.7235 5.19624 34.341 5.57768L31.3776 8.53307C30.1152 9.79205 28.352 10.4181 26.5786 10.2522L22.3741 9.85905C21.246 9.75354 20.3092 10.5735 20.2262 11.5959L19.8904 15.7306C19.7457 17.5121 18.7927 19.1221 17.3147 20.122L13.8365 22.475C12.9396 23.0817 12.7412 24.2625 13.3543 25.1086L15.8033 28.488C16.8517 29.9348 17.1846 31.7759 16.7006 33.4971L15.5762 37.4952C15.2994 38.4794 15.8867 39.5443 16.9699 39.8206L21.0577 40.8634C22.7847 41.304 24.2325 42.489 24.9857 44.1076L26.7412 47.8802C27.1854 48.8348 28.3732 49.2845 29.39 48.8095L33.204 47.0277C34.8179 46.2738 36.6889 46.2738 38.3028 47.0277L42.1168 48.8095C43.1336 49.2845 44.3214 48.8348 44.7656 47.8802L46.5211 44.1076C47.2743 42.489 48.7221 41.304 50.4491 40.8634L54.5369 39.8206C55.6201 39.5443 56.2074 38.4794 55.9306 37.4952L54.8062 33.4971L58.6568 32.4142L59.7812 36.4123C60.6829 39.6186 58.7268 42.8799 55.5256 43.6965L51.4378 44.7393C50.8551 44.8879 50.3863 45.2823 50.1477 45.7952L48.3922 49.5678C46.9965 52.5671 43.4043 53.8259 40.4238 52.4335L36.6098 50.6518C36.0689 50.3991 35.4379 50.3991 34.897 50.6518L31.083 52.4335C28.1025 53.8259 24.5103 52.5671 23.1146 49.5678L21.3591 45.7952C21.1204 45.2823 20.6516 44.8879 20.069 44.7393L15.9812 43.6965C12.78 42.8799 10.8239 39.6186 11.7256 36.4123L12.8499 32.4142C13.0012 31.8764 12.8996 31.2978 12.5644 30.8352L10.1154 27.4558C8.16188 24.7601 8.84682 21.0211 11.5952 19.1619L15.0734 16.8089C15.5605 16.4793 15.8585 15.9614 15.9035 15.4068L16.2393 11.2721C16.5082 7.96099 19.4682 5.56983 22.7466 5.87642L26.9511 6.26962C27.5531 6.32593 28.1411 6.11159 28.553 5.70079L31.5165 2.74539Z" fill="#FEB11C"/>
<path fill-rule="evenodd" clip-rule="evenodd" d="M52.4142 18.4142L37.3285 33.5C35.7664 35.0621 33.2337 35.0621 31.6716 33.5L25.0858 26.9142L27.9142 24.0858L34.5 30.6716L49.5858 15.5858L52.4142 18.4142Z" fill="#FEB11C"/>
<path fill-rule="evenodd" clip-rule="evenodd" d="M41.4909 69.8758L33.3146 57.0767L36.6855 54.9233L44.0382 66.4331L47.3975 61.4089C47.9972 60.512 49.0323 60.0061 50.1084 60.0842L57.1351 60.5937L56.8458 64.5832L50.3993 64.1158L46.513 69.9283C45.3101 71.7273 42.656 71.6996 41.4909 69.8758Z" fill="#FEB11C"/>
<path fill-rule="evenodd" clip-rule="evenodd" d="M9.46814 56.8479L12.2456 46.4824L16.1093 47.5176L13.7318 56.3905L19.4885 55.4595C20.4399 55.3057 21.4073 55.6183 22.0888 56.2997L27.1931 61.4041L24.3647 64.2325L19.6221 59.4899L12.8449 60.5859C10.6967 60.9333 8.90494 58.9498 9.46814 56.8479Z" fill="#FEB11C"/>
</svg>
