<svg width="72" height="72" viewBox="0 0 72 72" fill="none" xmlns="http://www.w3.org/2000/svg">
<path fill-rule="evenodd" clip-rule="evenodd" d="M13 1H56.0198C62.6379 1 68.0067 6.35808 68.0198 12.9762L68.0833 44.996L64.0833 45.004L64.0198 12.9841C64.011 8.57206 60.4319 5 56.0198 5H13V1ZM11.0833 13C9.97874 13 9.08331 13.8954 9.08331 15V39.0968C9.08331 40.2013 9.97874 41.0968 11.0833 41.0968H13.0833V45.0968H11.0833C7.76961 45.0968 5.08331 42.4105 5.08331 39.0968V15C5.08331 11.6863 7.7696 9 11.0833 9H13.0833V13H11.0833ZM59.5 37V39.0968C59.5 42.4105 56.8137 45.0968 53.5 45.0968L27.9032 45.0968C23.5384 45.0968 20 48.6352 20 53H16C16 46.426 21.3292 41.0968 27.9032 41.0968L53.5 41.0968C54.6046 41.0968 55.5 40.2013 55.5 39.0968V37H59.5Z" fill="#FEB11C"/>
<path fill-rule="evenodd" clip-rule="evenodd" d="M35 13C32.6909 13 31 14.7512 31 16.6939H27C27 12.3473 30.6817 9 35 9C39.3183 9 43 12.3473 43 16.6939C43 19.1776 41.778 21.3593 39.9368 22.749C39.0723 23.4015 38.302 24.0395 37.7493 24.7114C37.2056 25.3724 37 25.9119 37 26.3878V29H33V26.3878C33 24.6546 33.7787 23.242 34.6602 22.1704C35.5326 21.1097 36.6283 20.2347 37.5271 19.5563C38.45 18.8597 39 17.8222 39 16.6939C39 14.7512 37.3091 13 35 13Z" fill="#FEB11C"/>
<path fill-rule="evenodd" clip-rule="evenodd" d="M29 59C29 55.6863 31.6863 53 35 53H64C67.3137 53 70 55.6863 70 59V65C70 68.3137 67.3137 71 64 71H62V67H64C65.1046 67 66 66.1046 66 65V59C66 57.8954 65.1046 57 64 57H35C33.8954 57 33 57.8954 33 59V61H29V59Z" fill="#FEB11C"/>
<path fill-rule="evenodd" clip-rule="evenodd" d="M33 37V33H37V37H33Z" fill="#FEB11C"/>
<path fill-rule="evenodd" clip-rule="evenodd" d="M54 65V61H58V65H54Z" fill="#FEB11C"/>
<path fill-rule="evenodd" clip-rule="evenodd" d="M46 65V61H50V65H46Z" fill="#FEB11C"/>
<path fill-rule="evenodd" clip-rule="evenodd" d="M38 65V61H42V65H38Z" fill="#FEB11C"/>
</svg>
