<?xml version="1.0" encoding="UTF-8"?>
<svg id="Layer_1" data-name="Layer 1" xmlns="http://www.w3.org/2000/svg" viewBox="0 0 329.28 288.48">
  <defs>
    <style>
      .cls-1 {
        fill: #fff;
      }
    </style>
  </defs>
  <path class="cls-1" d="M329.28,215.52v72.96H0C0,221.6,0,154.72,0,87.84c.36,.01,.72,.04,1.08,.04,21.59,0,43.19,0,64.78,0h1.22v-1.5c0-6.72-.02-13.44,.01-20.15,0-1.47,.11-2.96,.32-4.42,1.99-14.11,14.12-24.61,28.39-24.61,55.83,0,111.65,0,167.48,0,1.2,0,2.4,.07,3.59,.2,13.47,1.47,24.3,12.69,25.23,26.18,.15,2.22,.02,4.46,.02,6.85,.65,0,1.04,0,1.42,0,11.52,0,23.03,0,34.55,0,.4,0,.79-.07,1.19-.11V210.24c-.4-.04-.79-.11-1.19-.11-11.52,0-23.04,0-34.56,0-.39,0-.77,.04-1.19,.06-.03,.33-.03,.57-.06,.8-.43,3.36-.52,6.81-1.34,10.07-4.55,17.98-20.49,30.22-39.17,30.23-47.32,.01-94.63,.01-141.95-.01-2.03,0-4.08-.16-6.09-.44-21.2-2.91-36.96-20.99-36.97-42.36,0-18.68,0-37.36,0-56.04v-1.52h113.68v-36.96H29.76v1.58c0,30.72-.05,61.44,.05,92.15,.02,4.77,.4,9.6,1.17,14.31,2.9,17.55,10.95,32.47,23.91,44.6,15.55,14.55,34.13,21.68,55.42,21.68,47,0,93.99,0,140.99,0,5.13,0,10.22-.38,15.26-1.36,16.27-3.18,30.17-10.73,41.56-22.77,11.45-12.1,18.25-26.46,20.46-42.98,.25-1.88,.46-3.77,.69-5.65Z"/>
  <path class="cls-1" d="M0,50.88V0c109.76,0,219.52,0,329.28,0V61.92c-.18-1.45-.34-2.9-.54-4.34-1.99-14.56-7.97-27.23-18.34-37.68C297.68,7.05,282.21,.28,264.11,.24c-56.36-.11-112.72-.05-169.08-.03-2.08,0-4.16,.09-6.22,.32-16.38,1.88-30.24,8.84-41.44,20.94-7.5,8.1-12.58,17.55-15.28,28.27-.19,.77-.39,1.26-1.38,1.2-1.83-.1-3.68-.03-5.52-.03-8.4-.01-16.8-.03-25.19-.04Z"/>
</svg>