<svg width="52" height="52" viewBox="0 0 52 52" fill="none" xmlns="http://www.w3.org/2000/svg">
<path fill-rule="evenodd" clip-rule="evenodd" d="M37 5H20V1H37V5ZM6.33784 11.3026L10.085 7.58095L12.9038 10.419L10.6171 12.6901L13.9427 15.8509C15.107 16.9576 15.1508 18.7052 14.2556 19.8885C12.1126 22.7212 10.8447 26.2376 10.8447 30.0526C10.8447 39.3995 18.4777 47 27.9224 47C37.367 47 45 39.3995 45 30.0526C45 21.3754 38.4216 14.2033 29.9224 13.2201V17.421H25.9224V9.10526H27.9224C39.5503 9.10526 49 18.4708 49 30.0526C49 41.6344 39.5503 51 27.9224 51C16.2944 51 6.84473 41.6344 6.84473 30.0526C6.84473 25.6382 8.22081 21.5391 10.5678 18.1617L7.77783 15.51L5.40936 17.8623L2.59064 15.0242L6.33784 11.3026ZM31.4641 26.8945L38.0296 23.2512L39.9704 26.7488L32.9986 30.6176C32.9362 33.3247 30.7221 35.5 28 35.5C25.2386 35.5 23 33.2614 23 30.5C23 27.7386 25.2386 25.5 28 25.5C29.3448 25.5 30.5655 26.0309 31.4641 26.8945ZM28 29.5C27.4477 29.5 27 29.9477 27 30.5C27 31.0523 27.4477 31.5 28 31.5C28.5523 31.5 29 31.0523 29 30.5C29 29.9477 28.5523 29.5 28 29.5Z" fill="#FEB11C"/>
</svg>
