<svg width="32" height="32" viewBox="0 0 32 32" fill="none" xmlns="http://www.w3.org/2000/svg">
<path fill-rule="evenodd" clip-rule="evenodd" d="M4 16C4 21.9333 8.33333 26.8667 14 27.8667L14.0671 27.813C14.0447 27.8087 14.0224 27.8043 14 27.7998V19.3332H11V15.9998H14V13.3332C14 10.3332 15.9333 8.6665 18.6667 8.6665C19.5333 8.6665 20.4667 8.79984 21.3333 8.93317V11.9998H19.8C18.3333 11.9998 18 12.7332 18 13.6665V15.9998H21.2L20.6667 19.3332H18V27.7998C17.9776 27.8043 17.9553 27.8087 17.9329 27.813L18 27.8667C23.6667 26.8667 28 21.9333 28 16C28 9.4 22.6 4 16 4C9.4 4 4 9.4 4 16Z" fill="#BDBDBD"/>
</svg>
