<svg width="52" height="52" viewBox="0 0 52 52" fill="none" xmlns="http://www.w3.org/2000/svg">
<path fill-rule="evenodd" clip-rule="evenodd" d="M20.2257 5.25155C20.585 3.36494 22.2345 2 24.155 2H27C30.3137 2 33 4.68629 33 8V18H29V8C29 6.89543 28.1046 6 27 6L24.155 6L23.2134 10.9436C22.6505 13.8988 21.2121 16.6164 19.0849 18.7435L18.636 19.1924C16.1981 21.6304 12.8915 23 9.44365 23H8C6.89543 23 6 23.8954 6 25V44H2V25C2 21.6863 4.68629 19 8 19H9.44365C11.8306 19 14.1198 18.0518 15.8076 16.364L16.2565 15.9151C17.8164 14.3552 18.8712 12.3623 19.284 10.1952L20.2257 5.25155ZM44 26H29V22H44C47.3137 22 50 24.6863 50 28V36.5C50 43.9558 43.9558 50 36.5 50H35C31.6863 50 29 47.3137 29 44V38H39V42H33V44C33 45.1046 33.8954 46 35 46H36.5C41.7467 46 46 41.7467 46 36.5V28C46 26.8954 45.1046 26 44 26ZM12 42V27H16V42C16 43.1046 16.8954 44 18 44H25V48H18C14.6863 48 12 45.3137 12 42ZM41 34H29V30H41V34Z" fill="#FEB11C"/>
</svg>
