<svg xmlns="http://www.w3.org/2000/svg" xmlns:xlink="http://www.w3.org/1999/xlink" width="30" height="30" viewBox="0 0 30 30">
  <defs>
    <clipPath id="clip-path">
      <rect id="Rectangle_3" data-name="Rectangle 3" width="30" height="30" transform="translate(944 -278)" fill="#fff"/>
    </clipPath>
  </defs>
  <g id="Mask_Group_5" data-name="Mask Group 5" transform="translate(-944 278)" clip-path="url(#clip-path)">
    <path id="Vector" d="M16.222,14.8a1,1,0,1,0-1.415,1.413ZM1,9.5H1ZM9.5,1V1Zm3.138,4.23-.77-.638-1.276,1.54.77.638ZM13,10v1h2V10Zm7.708,9.294L16.222,14.8l-1.415,1.413,4.486,4.494ZM17,9.5a7.5,7.5,0,0,1-2.2,5.3l1.414,1.414A9.5,9.5,0,0,0,19,9.5Zm-2.2,5.3A7.5,7.5,0,0,1,9.5,17v2a9.5,9.5,0,0,0,6.718-2.782ZM9.5,17a7.5,7.5,0,0,1-5.3-2.2L2.782,16.218A9.5,9.5,0,0,0,9.5,19ZM4.2,14.8A7.5,7.5,0,0,1,2,9.5H0a9.5,9.5,0,0,0,2.782,6.718ZM2,9.5A7.5,7.5,0,0,1,4.2,4.2L2.782,2.782A9.5,9.5,0,0,0,0,9.5ZM4.2,4.2A7.5,7.5,0,0,1,9.5,2V0A9.5,9.5,0,0,0,2.782,2.782ZM9.5,2a7.5,7.5,0,0,1,5.3,2.2l1.414-1.414A9.5,9.5,0,0,0,9.5,0Zm5.3,2.2A7.5,7.5,0,0,1,17,9.5h2a9.5,9.5,0,0,0-2.782-6.718ZM11.362,6.77A4.218,4.218,0,0,1,13,10h2a6.214,6.214,0,0,0-2.362-4.77Z" transform="translate(949 -273)" fill="#333"/>
  </g>
</svg>
