<svg width="57" height="26" viewBox="0 0 57 26" fill="none" xmlns="http://www.w3.org/2000/svg">
<path d="M3 13L1.57259 11.5991L0.197727 13L1.57259 14.4009L3 13ZM15.223 3.40089C15.9967 2.61255 15.9848 1.34628 15.1965 0.572587C14.4082 -0.201103 13.1419 -0.189228 12.3682 0.59911L15.223 3.40089ZM12.3682 25.4009C13.1419 26.1892 14.4082 26.2011 15.1965 25.4274C15.9848 24.6537 15.9967 23.3874 15.223 22.5991L12.3682 25.4009ZM4.42741 14.4009L15.223 3.40089L12.3682 0.59911L1.57259 11.5991L4.42741 14.4009ZM1.57259 14.4009L12.3682 25.4009L15.223 22.5991L4.42741 11.5991L1.57259 14.4009ZM57 11H3V15H57V11Z" fill="#FEB11C"/>
</svg>
