<svg width="204" height="73" viewBox="0 0 204 73" fill="none" xmlns="http://www.w3.org/2000/svg">
<path fill-rule="evenodd" clip-rule="evenodd" d="M10.1216 10.076C10.1216 7.51921 12.1943 5.4465 14.7511 5.4465H40.8487C43.4055 5.4465 45.4782 7.51921 45.4782 10.076V10.6207H50.9247V10.076C50.9247 4.51118 46.4135 0 40.8487 0H14.7511C9.93435 0 5.90697 3.37989 4.91126 7.89742H0V13.3439H10.1216V10.076ZM4.62959 17.701V32.2704C4.62959 39.0384 10.1162 44.525 16.8842 44.525H39.0787C45.6211 44.525 50.9248 39.2213 50.9248 32.6789H45.4783C45.4783 36.2133 42.6131 39.0785 39.0787 39.0785H16.8842C13.1242 39.0785 10.0761 36.0304 10.0761 32.2704V23.1475H27.7772V17.701H10.0761H7.35282H4.62959ZM199.89 54.6118H204V51.2046L200.806 51.2046C200.587 49.0698 199.908 45.1693 197.785 41.4596C195.245 37.0235 190.656 32.9145 182.644 32.4042C180.716 32.2814 179.241 33.8546 179.241 35.6448V38.5862H182.648V35.8197C189.222 36.3057 192.798 39.607 194.828 43.1523C196.934 46.8314 197.388 50.8258 197.482 52.3427C197.56 53.5999 198.597 54.6118 199.89 54.6118ZM67.8951 32.7529H64.023V36.1602H66.9874C67.2142 38.2166 67.8987 41.9068 69.9847 45.4901C72.4804 49.777 76.9536 53.8435 84.7415 54.7914C86.7367 55.0342 88.328 53.4269 88.328 51.5663V32.8052C88.328 32.8052 88.328 32.8051 86.6244 32.8051C84.9208 32.8051 84.9208 32.8052 84.9208 32.8052V51.3796C78.462 50.526 74.9297 47.2119 72.9293 43.7758C70.859 40.2195 70.4022 36.4651 70.3052 35.0156C70.222 33.773 69.1957 32.7529 67.8951 32.7529ZM94.9152 41.5507H105.676V44.9579H98.3225V52.0383C98.3225 60.7741 104.706 68.199 113.343 69.5094L112.832 72.8781C102.529 71.315 94.9152 62.4585 94.9152 52.0383V41.5507ZM115.586 32.8054V49.2465C115.586 54.8213 119.066 59.8034 124.3 61.7225L126.925 62.6851L128.098 59.4861L125.473 58.5235C121.581 57.0965 118.993 53.3918 118.993 49.2465V32.8054H115.586ZM130.919 36.2126C130.291 36.2126 129.783 36.7211 129.783 37.3484V38.7113H126.376V37.3484C126.376 34.8394 128.41 32.8054 130.919 32.8054H143.98C146.614 32.8054 148.75 34.9411 148.75 37.5755V38.7113H145.343V37.5755C145.343 36.8228 144.732 36.2126 143.98 36.2126H130.919ZM98.3225 37.3484C98.3225 36.7211 98.831 36.2126 99.4582 36.2126H109.794V32.8054H99.4582C96.9492 32.8054 94.9152 34.8394 94.9152 37.3484V38.7113H98.3225V37.3484ZM126.376 41.5507H136.876V44.9579H129.783V48.8195C129.783 50.3249 131.003 51.5453 132.509 51.5453H142.617C144.122 51.5453 145.343 50.3249 145.343 48.8195V48.4893H148.75V48.8195C148.75 52.2067 146.004 54.9525 142.617 54.9525H132.509C129.121 54.9525 126.376 52.2067 126.376 48.8195V41.5507ZM188.047 41.5507H179.188V54.0439H182.595V44.9579H188.047V41.5507ZM152.952 34.6226C152.952 33.6817 153.715 32.9189 154.656 32.9189H162.266C168.099 32.9189 172.828 37.6479 172.828 43.4814V54.0439H169.421V43.4814C169.421 39.5297 166.217 36.3262 162.266 36.3262H156.36V54.0439H152.952V34.6226Z" fill="#BDBDBD"/>
</svg>
