<svg width="52" height="52" viewBox="0 0 52 52" fill="none" xmlns="http://www.w3.org/2000/svg">
<path fill-rule="evenodd" clip-rule="evenodd" d="M4 10C4 6.68629 6.68629 4 10 4H29C32.3137 4 35 6.68629 35 10V32H44V36H31V10C31 8.89543 30.1046 8 29 8H10C8.89543 8 8 8.89543 8 10V12H4V10ZM0 16H20.5V20H0V16ZM40 24H39V20H40C46.6274 20 52 25.3726 52 32V41C52 44.3137 49.3137 47 46 47H40.584C39.8124 48.7659 38.0503 50 36 50C33.2386 50 31 47.7614 31 45C31 42.2386 33.2386 40 36 40C38.0503 40 39.8124 41.2341 40.584 43H46C47.1046 43 48 42.1046 48 41V32C48 27.5817 44.4183 24 40 24ZM25 28H6V24H25V28ZM18 32V36H2V32H18ZM9.5 44C8.94772 44 8.5 44.4477 8.5 45C8.5 45.5523 8.94772 46 9.5 46C10.0523 46 10.5 45.5523 10.5 45C10.5 44.4477 10.0523 44 9.5 44ZM4.5 45C4.5 42.2386 6.73858 40 9.5 40C12.2614 40 14.5 42.2386 14.5 45C14.5 47.7614 12.2614 50 9.5 50C6.73858 50 4.5 47.7614 4.5 45ZM36 44C35.4477 44 35 44.4477 35 45C35 45.5523 35.4477 46 36 46C36.5523 46 37 45.5523 37 45C37 44.4477 36.5523 44 36 44Z" fill="#FEB11C"/>
</svg>
