<svg width="106" height="29" viewBox="0 0 106 29" fill="none" xmlns="http://www.w3.org/2000/svg">
<path d="M23.9331 9.60552C23.9331 12.2289 23.025 14.5294 21.1281 16.4061C19.2514 18.2828 16.9913 19.211 14.3679 19.211H4.78258V28.7762H0V14.3679H4.78258H14.3881C15.6796 14.3679 16.7895 13.9038 17.7379 12.9755C18.6662 12.0473 19.1707 10.9172 19.1707 9.60552C19.1707 8.31402 18.7065 7.16378 17.7379 6.23551C16.8096 5.30725 15.6796 4.84312 14.3881 4.84312H4.78258L0 0H14.3679C16.9913 0 19.2514 0.928264 21.1281 2.80497C23.0048 4.70186 23.9331 6.98216 23.9331 9.60552Z" fill="#828282"/>
<path d="M28.7574 23.9331L26.3157 28.756H20.9883L35.3764 0L44.9819 19.1909H39.5939L35.3966 10.7356L31.1588 19.1909L28.7574 23.9331ZM49.7443 28.756H44.3967L42.0155 23.9734H47.3429L49.7443 28.756Z" fill="#828282"/>
<path d="M71.3581 20.7043L76.1407 22.2783C75.4949 23.247 74.7483 24.1551 73.8402 24.9421C72.9725 25.7291 72.0442 26.4152 70.9949 27.0004C69.9859 27.5654 68.9164 28.0094 67.7258 28.2919C66.5755 28.6148 65.3849 28.756 64.1338 28.756C60.1382 28.756 56.8086 27.3233 54.0036 24.5183C51.1986 21.7133 49.7659 18.3635 49.7659 14.3881C49.7659 10.4329 51.1583 7.06288 54.0036 4.25791C56.748 1.3924 60.1382 0 64.1338 0C66.1114 0 67.9881 0.363234 69.7437 1.10988C71.459 1.85653 73.0128 2.90587 74.3447 4.23773L70.894 7.60773C69.0172 5.73102 66.7975 4.80276 64.1338 4.80276C61.5104 4.80276 59.2503 5.71084 57.3332 7.60773C55.4565 9.48444 54.5686 11.7446 54.5686 14.3679C54.5686 16.9913 55.4767 19.2918 57.3332 21.1685C59.2099 23.0452 61.5104 23.9331 64.1338 23.9331C65.5665 23.9331 66.8984 23.6506 68.1293 23.1057C69.3401 22.5407 70.4096 21.7537 71.3581 20.7043ZM64.1338 12.0069H76.1407L71.3581 16.7895H64.1338V12.0069Z" fill="#828282"/>
<path d="M105.966 0L99.9926 4.82294H82.0327V0H105.966ZM99.9926 16.7895H82.0327V12.0069H99.9926V16.7895ZM105.966 28.3524V28.756H82.0327V23.9331H99.9926L105.966 28.3524Z" fill="#828282"/>
</svg>
