<svg width="52" height="52" viewBox="0 0 52 52" fill="none" xmlns="http://www.w3.org/2000/svg">
<path fill-rule="evenodd" clip-rule="evenodd" d="M8.5 2H18V6H12.5V20.1572C12.5 21.6208 11.3136 22.8072 9.85 22.8072C7.72371 22.8072 6 24.5309 6 26.6572V47H10.5V51H5C3.34315 51 2 49.6569 2 48V26.6572C2 22.7821 4.80784 19.5628 8.5 18.9229V2Z" fill="#FEB11C"/>
<path fill-rule="evenodd" clip-rule="evenodd" d="M43.5 31H33C29.6863 31 27 33.6863 27 37V39C27 45.6274 32.3726 51 39 51H50V47H39C34.5817 47 31 43.4183 31 39V37C31 35.8954 31.8954 35 33 35H43.5V31Z" fill="#FEB11C"/>
<path fill-rule="evenodd" clip-rule="evenodd" d="M18 10H29V14H22V16.6756C22 20.4748 21.1674 24.2279 19.5608 27.6706L18.6876 29.5416C18.564 29.8065 18.5 30.0952 18.5 30.3874V45C18.5 46.1046 19.3954 47 20.5 47H24.5V51H20.5C17.1863 51 14.5 48.3137 14.5 45V30.3874C14.5 29.5107 14.6921 28.6446 15.0629 27.8501L15.936 25.9791C17.2955 23.066 18 19.8903 18 16.6756V10Z" fill="#FEB11C"/>
<path fill-rule="evenodd" clip-rule="evenodd" d="M35 25H50V21H34C32.3431 21 31 22.3431 31 24V28H35V25Z" fill="#FEB11C"/>
</svg>
