<svg width="32" height="32" viewBox="0 0 32 32" fill="none" xmlns="http://www.w3.org/2000/svg">
<path fill-rule="evenodd" clip-rule="evenodd" d="M17.0949 3.94445C20.0666 4.09051 22.8358 5.31597 24.9508 7.43239C27.2068 9.6898 28.4485 12.6905 28.4473 15.8816C28.4446 22.4668 23.0837 27.8248 16.4982 27.8248C14.0217 27.8248 12.0537 27.0639 10.783 26.3711L4.44849 28.0319L6.14374 21.843C5.09805 20.0317 4.54782 17.9772 4.54868 15.8722C4.55132 9.28716 9.91174 3.92969 16.498 3.92969L17.0949 3.94445ZM11.0764 24.209L11.4391 24.4241C12.964 25.3285 14.7119 25.8071 16.4941 25.8078H16.4981C21.9722 25.8078 26.4276 21.3545 26.4298 15.881C26.4308 13.2285 25.3987 10.7345 23.5236 8.85814C21.6484 6.98171 19.1548 5.94775 16.5021 5.94688C11.0238 5.94688 6.56837 10.3997 6.56619 15.8728C6.56544 17.7486 7.0905 19.5753 8.08468 21.1557L8.32082 21.5314L7.3175 25.1945L11.0764 24.209ZM22.518 18.7217C22.4434 18.5971 22.2444 18.5225 21.9458 18.3731C21.6473 18.2237 20.1794 17.5018 19.9057 17.4021C19.632 17.3027 19.4329 17.2529 19.2339 17.5516C19.0349 17.8503 18.4627 18.5225 18.2885 18.7217C18.1144 18.9208 17.9402 18.9458 17.6417 18.7964C17.3431 18.6471 16.3811 18.3319 15.2407 17.3152C14.3531 16.5239 13.7538 15.5467 13.5797 15.2479C13.4055 14.9492 13.5611 14.7876 13.7106 14.6389C13.8449 14.5051 14.0092 14.2903 14.1585 14.116C14.3078 13.9418 14.3575 13.8173 14.457 13.6182C14.5565 13.419 14.5068 13.2448 14.4321 13.0954C14.3575 12.946 13.7604 11.4771 13.5116 10.8795C13.2692 10.2977 13.023 10.3765 12.8398 10.3673C12.6658 10.3586 12.4666 10.3567 12.2676 10.3567C12.0685 10.3567 11.7451 10.4314 11.4714 10.7302C11.1977 11.0289 10.4264 11.751 10.4264 13.2197C10.4264 14.6887 11.4963 16.1076 11.6456 16.3068C11.7949 16.5061 13.7509 19.5202 16.746 20.8129C17.4583 21.1204 18.0145 21.304 18.4481 21.4415C19.1633 21.6686 19.8142 21.6366 20.3287 21.5598C20.9023 21.4741 22.0951 20.8378 22.3439 20.1409C22.5927 19.4436 22.5927 18.8462 22.518 18.7217Z" fill="#BDBDBD"/>
</svg>
