<svg width="294" height="86" viewBox="0 0 294 86" fill="none" xmlns="http://www.w3.org/2000/svg">
<g clip-path="url(#clip0_1429_17580)">
<path fill-rule="evenodd" clip-rule="evenodd" d="M0 0.747375H8.13276C10.8644 0.747375 13.02 2.89001 13.1947 5.4998C13.3985 8.54422 14.3579 16.4297 18.7064 23.8993C22.9078 31.1163 30.3269 38.077 43.8926 39.8699V0.857265C43.8926 0.857098 43.8926 0.857014 47.4708 0.857014C51.049 0.857014 51.049 0.857098 51.049 0.857265V40.2621C51.049 44.17 47.7067 47.5458 43.516 47.0358C27.1587 45.045 17.7635 36.5039 12.5217 27.4998C8.14027 19.9737 6.70271 12.223 6.2263 7.90378H0V0.747375Z" fill="#333333"/>
<path fill-rule="evenodd" clip-rule="evenodd" d="M294 46.6579L285.368 46.6579C282.652 46.6579 280.473 44.5325 280.31 41.8919C280.113 38.706 279.159 30.3163 274.735 22.589C270.472 15.1426 262.961 8.20878 249.153 7.18806L249.153 12.9986L241.997 12.9986L241.997 6.82059C241.997 3.06068 245.096 -0.243641 249.145 0.0142626C265.972 1.08605 275.612 9.71628 280.946 19.0337C285.406 26.8254 286.831 35.0178 287.291 39.5015L294 39.5015L294 46.6579Z" fill="#333333"/>
<path fill-rule="evenodd" clip-rule="evenodd" d="M64.8828 19.2248H87.4851V26.3812H72.0392V41.2524C72.0392 59.6006 85.4464 75.1954 103.587 77.9478L102.514 85.0232C80.8751 81.7401 64.8828 63.1384 64.8828 41.2524V19.2248Z" fill="#333333"/>
<path fill-rule="evenodd" clip-rule="evenodd" d="M108.299 35.389V0.857056H115.455V35.389C115.455 44.0957 120.89 51.8767 129.064 54.874L134.578 56.8957L132.114 63.6147L126.601 61.593C115.607 57.5621 108.299 47.098 108.299 35.389Z" fill="#333333"/>
<path fill-rule="evenodd" clip-rule="evenodd" d="M140.507 8.01346C139.189 8.01346 138.121 9.08147 138.121 10.3989V13.2615H130.965V10.3989C130.965 5.1291 135.237 0.857056 140.507 0.857056H167.94C173.473 0.857056 177.959 5.3427 177.959 10.876V13.2615H170.802V10.876C170.802 9.29507 169.521 8.01346 167.94 8.01346H140.507Z" fill="#333333"/>
<path fill-rule="evenodd" clip-rule="evenodd" d="M74.4247 8.01346C73.1072 8.01346 72.0392 9.08147 72.0392 10.3989V13.2615H64.8828V10.3989C64.8828 5.1291 69.1548 0.857056 74.4247 0.857056H96.1324V8.01346H74.4247Z" fill="#333333"/>
<path fill-rule="evenodd" clip-rule="evenodd" d="M130.965 19.2248H153.018V26.3812H138.121V34.4918C138.121 37.6537 140.684 40.2169 143.846 40.2169H165.077C168.239 40.2169 170.802 37.6537 170.802 34.4918V33.7984H177.959V34.4918C177.959 41.6061 172.191 47.3733 165.077 47.3733H143.846C136.732 47.3733 130.965 41.6061 130.965 34.4918V19.2248Z" fill="#333333"/>
<path fill-rule="evenodd" clip-rule="evenodd" d="M241.884 19.2248H260.49V26.3812H249.04V45.4649H241.884V19.2248Z" fill="#333333"/>
<path fill-rule="evenodd" clip-rule="evenodd" d="M186.782 4.67342C186.782 2.69723 188.384 1.09521 190.36 1.09521H206.343C218.595 1.09521 228.528 11.0277 228.528 23.2801V45.4649H221.371V23.2801C221.371 14.9801 214.643 8.25162 206.343 8.25162H193.939V45.4649H186.782V4.67342Z" fill="#333333"/>
</g>
<defs>
<clipPath id="clip0_1429_17580">
<rect width="294" height="85.0231" fill="white"/>
</clipPath>
</defs>
</svg>
