<svg width="62" height="54" viewBox="0 0 62 54" fill="none" xmlns="http://www.w3.org/2000/svg">
<path fill-rule="evenodd" clip-rule="evenodd" d="M17.8902 6.60552C14.7893 6.60552 12.2755 9.1193 12.2755 12.2202V16.1835H0V9.578H5.95639C7.16397 4.09914 12.0484 0 17.8902 0H49.5414C56.2904 0 61.7616 5.47116 61.7616 12.2202V12.8808H55.1561V12.2202C55.1561 9.1193 52.6423 6.60552 49.5414 6.60552H17.8902ZM5.61479 39.1376V21.4679H8.91743H12.2203H33.6881V28.0734H12.2203V39.1376C12.2203 43.6978 15.917 47.3945 20.4772 47.3945H47.3947C51.6812 47.3945 55.1561 43.9196 55.1561 39.633H61.7617C61.7617 47.5677 55.3293 54 47.3947 54H20.4772C12.2689 54 5.61479 47.3459 5.61479 39.1376Z" fill="#333333"/>
</svg>
